<svg xmlns="http://www.w3.org/2000/svg" viewBox="0 0 900 450" width="100%" height="100%">
  <defs>
    <linearGradient id="bgGrad8" x1="0%" y1="0%" x2="100%" y2="100%"><stop offset="0%" stop-color="#020617"/><stop offset="50%" stop-color="#0f172a"/><stop offset="100%" stop-color="#1e3a8a"/></linearGradient>
    <filter id="glow8" x="-20%" y="-20%" width="140%" height="140%"><feGaussianBlur stdDeviation="5" result="blur"/><feComposite in="SourceGraphic" in2="blur" operator="over"/></filter>
  </defs>
  <rect width="900" height="450" rx="12" fill="url(#bgGrad8)" stroke="#334155" stroke-width="1.5"/>
  <g transform="translate(30, 25)">
    <rect width="470" height="32" rx="16" fill="rgba(59, 130, 246, 0.12)" stroke="#3b82f6" stroke-width="1"/>
    <text x="235" y="21" fill="#60a5fa" font-family="'JetBrains Mono', monospace" font-size="12" font-weight="bold" text-anchor="middle">FIGURE 8.1 • 3D PEROVSKITE ABX3 LATTICE &amp; Z-SCHEME WATER SPLITTING</text>
  </g>
  <!-- Left: 3D Perovskite Unit Cell ABX3 -->
  <g transform="translate(50, 80)">
    <rect width="380" height="330" rx="8" fill="rgba(15, 23, 42, 0.8)" stroke="#facc15" stroke-width="1.5"/>
    <text x="190" y="26" fill="#facc15" font-family="'Sarabun', sans-serif" font-size="13" font-weight="bold" text-anchor="middle">โครงสร้างผลึกเพอรอฟสไกต์ (Perovskite ABX₃ Unit Cell)</text>
    <!-- Isometric Unit Cell Box -->
    <g transform="translate(90, 45)">
      <!-- Octahedron BX6 -->
      <polygon points="100,20 160,60 100,100 40,60" fill="rgba(56, 189, 248, 0.4)" stroke="#38bdf8"/>
      <polygon points="100,100 160,60 160,140 100,180" fill="rgba(2, 132, 199, 0.5)" stroke="#38bdf8"/>
      <polygon points="100,100 40,60 40,140 100,180" fill="rgba(3, 105, 161, 0.6)" stroke="#38bdf8"/>
      <!-- B cation (Pb2+) center -->
      <circle cx="100" cy="100" r="10" fill="#3b82f6" filter="url(#glow8)"/>
      <!-- A cations (Cs+ / MA+) at corners -->
      <circle cx="20" cy="30" r="12" fill="#eab308"/><circle cx="180" cy="30" r="12" fill="#eab308"/>
      <circle cx="20" cy="170" r="12" fill="#eab308"/><circle cx="180" cy="170" r="12" fill="#eab308"/>
      <!-- X anions (I-, Br-) at faces -->
      <circle cx="100" cy="20" r="7" fill="#f43f5e"/><circle cx="100" cy="180" r="7" fill="#f43f5e"/>
      <circle cx="40" cy="100" r="7" fill="#f43f5e"/><circle cx="160" cy="100" r="7" fill="#f43f5e"/>
    </g>
    <text x="190" y="270" fill="#facc15" font-family="'JetBrains Mono', monospace" font-size="11.5" font-weight="bold" text-anchor="middle">Tolerance Factor: t = (r_A + r_X)/[√2(r_B + r_X)]</text>
    <text x="190" y="295" fill="#cbd5e1" font-family="'Sarabun', sans-serif" font-size="10" text-anchor="middle">ประสิทธิภาพเซลล์แสงอาทิตย์ (PCE) ทะลุ 26.1% (Tandem &gt; 33%)</text>
  </g>
  <!-- Right: Z-Scheme Photocatalytic Water Splitting -->
  <g transform="translate(470, 80)">
    <rect width="380" height="330" rx="8" fill="rgba(15, 23, 42, 0.8)" stroke="#10b981" stroke-width="1.5"/>
    <text x="190" y="26" fill="#34d399" font-family="'Sarabun', sans-serif" font-size="13" font-weight="bold" text-anchor="middle">การเร่งปฏิกิริยาด้วยแสงสองขั้นตอน (Z-Scheme Photocatalysis)</text>
    <!-- Photocatalyst 1 (Oxygen Evolution) -->
    <rect x="70" y="60" width="85" height="130" rx="6" fill="#1e293b" stroke="#3b82f6" stroke-width="1.5"/>
    <text x="112" y="80" fill="#60a5fa" font-size="9" text-anchor="middle" font-weight="bold">PS I (BiVO₄)</text>
    <text x="112" y="105" fill="#38bdf8" font-size="8.5" text-anchor="middle">CB: +0.4V</text>
    <text x="112" y="170" fill="#38bdf8" font-size="8.5" text-anchor="middle">VB: +2.8V</text>
    <text x="112" y="185" fill="#f43f5e" font-size="8" text-anchor="middle">O₂ + 4H⁺ ← H₂O</text>
    <!-- Electron Mediator Shunt -->
    <path d="M 155,100 L 225,160" stroke="#facc15" stroke-width="3" stroke-dasharray="3 3" filter="url(#glow8)"/>
    <text x="190" y="125" fill="#facc15" font-size="9" text-anchor="middle" font-weight="bold">e⁻ Transfer</text>
    <!-- Photocatalyst 2 (Hydrogen Evolution) -->
    <rect x="225" y="40" width="85" height="130" rx="6" fill="#1e293b" stroke="#10b981" stroke-width="1.5"/>
    <text x="267" y="60" fill="#34d399" font-size="9" text-anchor="middle" font-weight="bold">PS II (g-C₃N₄)</text>
    <text x="267" y="85" fill="#10b981" font-size="8.5" text-anchor="middle">CB: -0.8V</text>
    <text x="267" y="100" fill="#facc15" font-size="8" text-anchor="middle">2H⁺ + 2e⁻ → H₂</text>
    <text x="267" y="150" fill="#10b981" font-size="8.5" text-anchor="middle">VB: +1.9V</text>
    <text x="190" y="270" fill="#34d399" font-family="'JetBrains Mono', monospace" font-size="11.5" font-weight="bold" text-anchor="middle">Overall Solar Water Splitting: 2H₂O → 2H₂ + O₂</text>
    <text x="190" y="295" fill="#cbd5e1" font-family="'Sarabun', sans-serif" font-size="10" text-anchor="middle">การแยกน้ำด้วยแสงอาทิตย์เลียนแบบการสังเคราะห์แสงธรรมชาติ</text>
  </g>
</svg>