<svg xmlns="http://www.w3.org/2000/svg" viewBox="0 0 900 450" width="100%" height="100%">
  <defs>
    <linearGradient id="bgGrad3" x1="0%" y1="0%" x2="100%" y2="100%"><stop offset="0%" stop-color="#020617"/><stop offset="50%" stop-color="#0f172a"/><stop offset="100%" stop-color="#14532d"/></linearGradient>
    <filter id="glow3" x="-20%" y="-20%" width="140%" height="140%"><feGaussianBlur stdDeviation="5" result="blur"/><feComposite in="SourceGraphic" in2="blur" operator="over"/></filter>
  </defs>
  <rect width="900" height="450" rx="12" fill="url(#bgGrad3)" stroke="#334155" stroke-width="1.5"/>
  <g transform="translate(30, 25)">
    <rect width="450" height="32" rx="16" fill="rgba(16, 185, 129, 0.12)" stroke="#10b981" stroke-width="1"/>
    <text x="225" y="21" fill="#34d399" font-family="'JetBrains Mono', monospace" font-size="12" font-weight="bold" text-anchor="middle">FIGURE 3.1 • 3D ALD ATOMIC CYCLE &amp; LAMER CRYSTALLIZATION</text>
  </g>
  <!-- Left: 4-Step ALD Atomic Monolayer Cycle -->
  <g transform="translate(45, 80)">
    <rect width="400" height="330" rx="8" fill="rgba(15, 23, 42, 0.8)" stroke="#10b981" stroke-width="1.5"/>
    <text x="200" y="26" fill="#34d399" font-family="'Sarabun', sans-serif" font-size="13" font-weight="bold" text-anchor="middle">วัฏจักรการสะสมชั้นอะตอม (Atomic Layer Deposition: ALD)</text>
    <!-- Substrate base -->
    <rect x="30" y="240" width="340" height="40" rx="4" fill="#334155" stroke="#64748b"/>
    <text x="200" y="265" fill="#94a3b8" font-family="'JetBrains Mono', monospace" font-size="11" text-anchor="middle">Silicon Substrate (100)</text>
    <!-- Monolayer atoms A & B -->
    <g transform="translate(30, 220)">
      <circle cx="20" cy="0" r="10" fill="#3b82f6" filter="url(#glow3)"/><circle cx="60" cy="0" r="10" fill="#f43f5e"/>
      <circle cx="100" cy="0" r="10" fill="#3b82f6"/><circle cx="140" cy="0" r="10" fill="#f43f5e"/>
      <circle cx="180" cy="0" r="10" fill="#3b82f6"/><circle cx="220" cy="0" r="10" fill="#f43f5e"/>
      <circle cx="260" cy="0" r="10" fill="#3b82f6"/><circle cx="300" cy="0" r="10" fill="#f43f5e"/>
      <circle cx="340" cy="0" r="10" fill="#3b82f6"/>
    </g>
    <!-- Precursor Pulses Graphic -->
    <g transform="translate(40, 55)">
      <rect x="0" y="0" width="70" height="60" rx="4" fill="#1e293b" stroke="#3b82f6"/>
      <text x="35" y="25" fill="#38bdf8" font-size="9" text-anchor="middle" font-weight="bold">1. Pulse A</text>
      <text x="35" y="45" fill="#94a3b8" font-size="8" text-anchor="middle">TMA Precursor</text>
      <line x1="75" y1="30" x2="90" y2="30" stroke="#facc15" stroke-width="2"/>
      <rect x="95" y="0" width="70" height="60" rx="4" fill="#1e293b" stroke="#64748b"/>
      <text x="130" y="25" fill="#e2e8f0" font-size="9" text-anchor="middle" font-weight="bold">2. Purge N₂</text>
      <text x="130" y="45" fill="#94a3b8" font-size="8" text-anchor="middle">Remove Excess</text>
      <line x1="170" y1="30" x2="185" y2="30" stroke="#facc15" stroke-width="2"/>
      <rect x="190" y="0" width="70" height="60" rx="4" fill="#1e293b" stroke="#f43f5e"/>
      <text x="225" y="25" fill="#f87171" font-size="9" text-anchor="middle" font-weight="bold">3. Pulse B</text>
      <text x="225" y="45" fill="#94a3b8" font-size="8" text-anchor="middle">H₂O Vapor</text>
      <line x1="265" y1="30" x2="280" y2="30" stroke="#facc15" stroke-width="2"/>
      <rect x="285" y="0" width="70" height="60" rx="4" fill="#1e293b" stroke="#10b981"/>
      <text x="320" y="25" fill="#34d399" font-size="9" text-anchor="middle" font-weight="bold">4. Al₂O₃ Layer</text>
      <text x="320" y="45" fill="#94a3b8" font-size="8" text-anchor="middle">~0.1 nm/Cycle</text>
    </g>
    <text x="200" y="310" fill="#34d399" font-family="'JetBrains Mono', monospace" font-size="10.5" font-weight="bold" text-anchor="middle">Self-Limiting Surface Reaction: 100% Conformality</text>
  </g>
  <!-- Right: LaMer Nucleation Diagram -->
  <g transform="translate(470, 80)">
    <rect width="390" height="330" rx="8" fill="rgba(15, 23, 42, 0.8)" stroke="#f59e0b" stroke-width="1.5"/>
    <text x="195" y="26" fill="#fbbf24" font-family="'Sarabun', sans-serif" font-size="13" font-weight="bold" text-anchor="middle">ทฤษฎีการเกิดนิวเคลียสและการเติบโต (LaMer Model)</text>
    <line x1="50" y1="260" x2="350" y2="260" stroke="#64748b" stroke-width="1.5"/>
    <line x1="50" y1="260" x2="50" y2="50" stroke="#64748b" stroke-width="1.5"/>
    <!-- Saturation thresholds -->
    <line x1="50" y1="180" x2="350" y2="180" stroke="#64748b" stroke-dasharray="3 3"/>
    <text x="40" y="184" fill="#94a3b8" font-size="9" text-anchor="end">C_s</text>
    <line x1="50" y1="100" x2="350" y2="100" stroke="#f43f5e" stroke-dasharray="3 3"/>
    <text x="40" y="104" fill="#f87171" font-size="9" text-anchor="end">C_min</text>
    <!-- LaMer Curve -->
    <path d="M 50,250 Q 90,220 120,80 Q 150,70 170,120 Q 230,160 340,175" fill="none" stroke="#facc15" stroke-width="3" filter="url(#glow3)"/>
    <!-- Regions -->
    <rect x="50" y="50" width="70" height="210" fill="rgba(59, 130, 246, 0.08)"/>
    <text x="85" y="70" fill="#60a5fa" font-size="9" text-anchor="middle">I. Prenucleation</text>
    <rect x="120" y="50" width="50" height="210" fill="rgba(244, 63, 94, 0.15)"/>
    <text x="145" y="70" fill="#f87171" font-size="9" text-anchor="middle">II. Burst</text>
    <rect x="170" y="50" width="180" height="210" fill="rgba(16, 185, 129, 0.08)"/>
    <text x="260" y="70" fill="#34d399" font-size="9" text-anchor="middle">III. Diffusion-Controlled Growth</text>
    <text x="195" y="310" fill="#facc15" font-family="'JetBrains Mono', monospace" font-size="10.5" font-weight="bold" text-anchor="middle">Monodisperse Nanocrystal Synthesis</text>
  </g>
</svg>